<svg width="0" height="0" class="hidden">
  <symbol xmlns="http://www.w3.org/2000/svg" xmlns:xlink="http://www.w3.org/1999/xlink" version="1.1" xml:space="preserve" viewBox="0 0 400 400" id="left1">
    <desc>Created with Fabric.js 3.6.2</desc>
    <defs></defs>
    <g transform="matrix(0 7.69 7.69 0 201.35 199.4)" id="Triangle">
      <path transform=" translate(-9.83, -14.92)" d="M 10.4904651 3.9651013 C 14.014306 3.9651013 17.9143371 8.0256461 21.5511247 14.1552767 C 22.9503066 16.5135305 24.1522274 18.9685388 24.8670668 20.9009553 C 25.2373228 21.9018635 25.4701627 22.7415965 25.5431866 23.3977293 C 25.6889584 24.7075162 25.2731507 25.8762341 23.7497424 25.8762341 L -4.04664427 25.8762341 C -5.55792801 25.8762341 -6.057131 24.6726202 -5.88753576 23.3699892 C -5.79976671 22.6958507 -5.52628409 21.8468847 -5.09192149 20.8314406 C -4.27340141 18.9179208 -2.89845118 16.4643795 -1.30294168 14.0852134 C 2.75801346 8.02966366 7.00248841 3.9651013 10.4904651 3.9651013 Z" stroke-linecap="round"></path>
    </g>
    <g transform="matrix(-7.69 0 0 7.69 111.54 200)" id="Rectangle">
      <rect x="-1.5" y="-15" rx="1.5" ry="1.5" width="3" height="30"></rect>
    </g>
  </symbol>
</svg>