<?xml version="1.0" encoding="UTF-8" standalone="no" ?>
<!DOCTYPE svg PUBLIC "-//W3C//DTD SVG 1.1//EN" "http://www.w3.org/Graphics/SVG/1.1/DTD/svg11.dtd">
<svg xmlns="http://www.w3.org/2000/svg" xmlns:xlink="http://www.w3.org/1999/xlink" version="1.1" width="400" height="400" viewBox="0 0 400 400" xml:space="preserve">
<desc>Created with Fabric.js 3.6.2</desc>
<defs>
</defs>
<g transform="matrix(0.39 0 0 0.39 133.16 257.95)" id="Layer_2"  >
<path style="stroke: none; stroke-width: 1; stroke-dasharray: none; stroke-linecap: butt; stroke-dashoffset: 0; stroke-linejoin: miter; stroke-miterlimit: 4; fill: rgb(27,57,84); fill-rule: nonzero; opacity: 1;"  transform=" translate(-84.9, -404.35)" d="M 128.8 425.7 H 41 c -2.8 0 -5 -2.2 -5 -5 V 388 c 0 -2.8 2.2 -5 5 -5 h 87.8 c 2.8 0 5 2.2 5 5 v 32.7 C 133.8 423.4 131.5 425.7 128.8 425.7 z M 46 415.7 h 77.8 V 393 H 46 V 415.7 z" stroke-linecap="round" />
</g>
<g transform="matrix(0.39 0 0 0.39 133.16 234.75)" id="Layer_2"  >
<path style="stroke: none; stroke-width: 1; stroke-dasharray: none; stroke-linecap: butt; stroke-dashoffset: 0; stroke-linejoin: miter; stroke-miterlimit: 4; fill: rgb(27,57,84); fill-rule: nonzero; opacity: 1;"  transform=" translate(-84.9, -344.95)" d="M 128.8 366.3 H 41 c -2.8 0 -5 -2.2 -5 -5 v -32.7 c 0 -2.8 2.2 -5 5 -5 h 87.8 c 2.8 0 5 2.2 5 5 v 32.7 C 133.8 364.1 131.5 366.3 128.8 366.3 z M 46 356.3 h 77.8 v -22.7 H 46 V 356.3 z" stroke-linecap="round" />
</g>
<g transform="matrix(0.39 0 0 0.39 133.16 211.58)" id="Layer_2"  >
<path style="stroke: none; stroke-width: 1; stroke-dasharray: none; stroke-linecap: butt; stroke-dashoffset: 0; stroke-linejoin: miter; stroke-miterlimit: 4; fill: rgb(27,57,84); fill-rule: nonzero; opacity: 1;"  transform=" translate(-84.9, -285.65)" d="M 128.8 307 H 41 c -2.8 0 -5 -2.2 -5 -5 v -32.7 c 0 -2.8 2.2 -5 5 -5 h 87.8 c 2.8 0 5 2.2 5 5 V 302 C 133.8 304.8 131.5 307 128.8 307 z M 46 297 h 77.8 v -22.7 H 46 V 297 z" stroke-linecap="round" />
</g>
<g transform="matrix(0.39 0 0 0.39 133.16 188.42)" id="Layer_2"  >
<path style="stroke: none; stroke-width: 1; stroke-dasharray: none; stroke-linecap: butt; stroke-dashoffset: 0; stroke-linejoin: miter; stroke-miterlimit: 4; fill: rgb(27,57,84); fill-rule: nonzero; opacity: 1;"  transform=" translate(-84.9, -226.35)" d="M 128.8 247.7 H 41 c -2.8 0 -5 -2.2 -5 -5 V 210 c 0 -2.8 2.2 -5 5 -5 h 87.8 c 2.8 0 5 2.2 5 5 v 32.7 C 133.8 245.4 131.5 247.7 128.8 247.7 z M 46 237.7 h 77.8 V 215 H 46 V 237.7 z" stroke-linecap="round" />
</g>
<g transform="matrix(0.39 0 0 0.39 177.7 257.95)" id="Layer_2"  >
<path style="stroke: none; stroke-width: 1; stroke-dasharray: none; stroke-linecap: butt; stroke-dashoffset: 0; stroke-linejoin: miter; stroke-miterlimit: 4; fill: rgb(22,173,225); fill-rule: nonzero; opacity: 1;"  transform=" translate(-198.9, -404.35)" d="M 242.8 425.7 h -87.8 c -2.8 0 -5 -2.2 -5 -5 V 388 c 0 -2.8 2.2 -5 5 -5 h 87.8 c 2.8 0 5 2.2 5 5 v 32.7 C 247.8 423.4 245.6 425.7 242.8 425.7 z M 160.1 415.7 h 77.8 V 393 h -77.8 V 415.7 z" stroke-linecap="round" />
</g>
<g transform="matrix(0.39 0 0 0.39 177.7 234.75)" id="Layer_2"  >
<path style="stroke: none; stroke-width: 1; stroke-dasharray: none; stroke-linecap: butt; stroke-dashoffset: 0; stroke-linejoin: miter; stroke-miterlimit: 4; fill: rgb(22,173,225); fill-rule: nonzero; opacity: 1;"  transform=" translate(-198.9, -344.95)" d="M 242.8 366.3 h -87.8 c -2.8 0 -5 -2.2 -5 -5 v -32.7 c 0 -2.8 2.2 -5 5 -5 h 87.8 c 2.8 0 5 2.2 5 5 v 32.7 C 247.8 364.1 245.6 366.3 242.8 366.3 z M 160.1 356.3 h 77.8 v -22.7 h -77.8 V 356.3 z" stroke-linecap="round" />
</g>
<g transform="matrix(0.39 0 0 0.39 177.7 211.58)" id="Layer_2"  >
<path style="stroke: none; stroke-width: 1; stroke-dasharray: none; stroke-linecap: butt; stroke-dashoffset: 0; stroke-linejoin: miter; stroke-miterlimit: 4; fill: rgb(22,173,225); fill-rule: nonzero; opacity: 1;"  transform=" translate(-198.9, -285.65)" d="M 242.8 307 h -87.8 c -2.8 0 -5 -2.2 -5 -5 v -32.7 c 0 -2.8 2.2 -5 5 -5 h 87.8 c 2.8 0 5 2.2 5 5 V 302 C 247.8 304.8 245.6 307 242.8 307 z M 160.1 297 h 77.8 v -22.7 h -77.8 V 297 z" stroke-linecap="round" />
</g>
<g transform="matrix(0.39 0 0 0.39 222.27 257.95)" id="Layer_2"  >
<path style="stroke: none; stroke-width: 1; stroke-dasharray: none; stroke-linecap: butt; stroke-dashoffset: 0; stroke-linejoin: miter; stroke-miterlimit: 4; fill: rgb(27,57,84); fill-rule: nonzero; opacity: 1;"  transform=" translate(-313, -404.35)" d="M 356.9 425.7 h -87.8 c -2.8 0 -5 -2.2 -5 -5 V 388 c 0 -2.8 2.2 -5 5 -5 h 87.8 c 2.8 0 5 2.2 5 5 v 32.7 C 361.9 423.4 359.7 425.7 356.9 425.7 z M 274.2 415.7 h 77.8 V 393 h -77.8 V 415.7 z" stroke-linecap="round" />
</g>
<g transform="matrix(0.39 0 0 0.39 222.27 234.75)" id="Layer_2"  >
<path style="stroke: none; stroke-width: 1; stroke-dasharray: none; stroke-linecap: butt; stroke-dashoffset: 0; stroke-linejoin: miter; stroke-miterlimit: 4; fill: rgb(27,57,84); fill-rule: nonzero; opacity: 1;"  transform=" translate(-313, -344.95)" d="M 356.9 366.3 h -87.8 c -2.8 0 -5 -2.2 -5 -5 v -32.7 c 0 -2.8 2.2 -5 5 -5 h 87.8 c 2.8 0 5 2.2 5 5 v 32.7 C 361.9 364.1 359.7 366.3 356.9 366.3 z M 274.2 356.3 h 77.8 v -22.7 h -77.8 V 356.3 z" stroke-linecap="round" />
</g>
<g transform="matrix(0.39 0 0 0.39 222.27 211.58)" id="Layer_2"  >
<path style="stroke: none; stroke-width: 1; stroke-dasharray: none; stroke-linecap: butt; stroke-dashoffset: 0; stroke-linejoin: miter; stroke-miterlimit: 4; fill: rgb(27,57,84); fill-rule: nonzero; opacity: 1;"  transform=" translate(-313, -285.65)" d="M 356.9 307 h -87.8 c -2.8 0 -5 -2.2 -5 -5 v -32.7 c 0 -2.8 2.2 -5 5 -5 h 87.8 c 2.8 0 5 2.2 5 5 V 302 C 361.9 304.8 359.7 307 356.9 307 z M 274.2 297 h 77.8 v -22.7 h -77.8 V 297 z" stroke-linecap="round" />
</g>
<g transform="matrix(0.39 0 0 0.39 222.27 188.42)" id="Layer_2"  >
<path style="stroke: none; stroke-width: 1; stroke-dasharray: none; stroke-linecap: butt; stroke-dashoffset: 0; stroke-linejoin: miter; stroke-miterlimit: 4; fill: rgb(27,57,84); fill-rule: nonzero; opacity: 1;"  transform=" translate(-313, -226.35)" d="M 356.9 247.7 h -87.8 c -2.8 0 -5 -2.2 -5 -5 V 210 c 0 -2.8 2.2 -5 5 -5 h 87.8 c 2.8 0 5 2.2 5 5 v 32.7 C 361.9 245.4 359.7 247.7 356.9 247.7 z M 274.2 237.7 h 77.8 V 215 h -77.8 V 237.7 z" stroke-linecap="round" />
</g>
<g transform="matrix(0.39 0 0 0.39 266.84 257.95)" id="Layer_2"  >
<path style="stroke: none; stroke-width: 1; stroke-dasharray: none; stroke-linecap: butt; stroke-dashoffset: 0; stroke-linejoin: miter; stroke-miterlimit: 4; fill: rgb(22,173,225); fill-rule: nonzero; opacity: 1;"  transform=" translate(-427.1, -404.35)" d="M 471 425.7 h -87.8 c -2.8 0 -5 -2.2 -5 -5 V 388 c 0 -2.8 2.2 -5 5 -5 H 471 c 2.8 0 5 2.2 5 5 v 32.7 C 476 423.4 473.8 425.7 471 425.7 z M 388.2 415.7 H 466 V 393 h -77.8 V 415.7 z" stroke-linecap="round" />
</g>
<g transform="matrix(0.39 0 0 0.39 266.84 234.75)" id="Layer_2"  >
<path style="stroke: none; stroke-width: 1; stroke-dasharray: none; stroke-linecap: butt; stroke-dashoffset: 0; stroke-linejoin: miter; stroke-miterlimit: 4; fill: rgb(22,173,225); fill-rule: nonzero; opacity: 1;"  transform=" translate(-427.1, -344.95)" d="M 471 366.3 h -87.8 c -2.8 0 -5 -2.2 -5 -5 v -32.7 c 0 -2.8 2.2 -5 5 -5 H 471 c 2.8 0 5 2.2 5 5 v 32.7 C 476 364.1 473.8 366.3 471 366.3 z M 388.2 356.3 H 466 v -22.7 h -77.8 V 356.3 z" stroke-linecap="round" />
</g>
<g transform="matrix(0.39 0 0 0.39 266.84 211.58)" id="Layer_2"  >
<path style="stroke: none; stroke-width: 1; stroke-dasharray: none; stroke-linecap: butt; stroke-dashoffset: 0; stroke-linejoin: miter; stroke-miterlimit: 4; fill: rgb(22,173,225); fill-rule: nonzero; opacity: 1;"  transform=" translate(-427.1, -285.65)" d="M 471 307 h -87.8 c -2.8 0 -5 -2.2 -5 -5 v -32.7 c 0 -2.8 2.2 -5 5 -5 H 471 c 2.8 0 5 2.2 5 5 V 302 C 476 304.8 473.8 307 471 307 z M 388.2 297 H 466 v -22.7 h -77.8 V 297 z" stroke-linecap="round" />
</g>
<g transform="matrix(0.39 0 0 0.39 266.84 188.42)" id="Layer_2"  >
<path style="stroke: none; stroke-width: 1; stroke-dasharray: none; stroke-linecap: butt; stroke-dashoffset: 0; stroke-linejoin: miter; stroke-miterlimit: 4; fill: rgb(22,173,225); fill-rule: nonzero; opacity: 1;"  transform=" translate(-427.1, -226.35)" d="M 471 247.7 h -87.8 c -2.8 0 -5 -2.2 -5 -5 V 210 c 0 -2.8 2.2 -5 5 -5 H 471 c 2.8 0 5 2.2 5 5 v 32.7 C 476 245.4 473.8 247.7 471 247.7 z M 388.2 237.7 H 466 V 215 h -77.8 V 237.7 z" stroke-linecap="round" />
</g>
<g transform="matrix(0.39 0 0 0.39 266.84 165.21)" id="Layer_2"  >
<path style="stroke: none; stroke-width: 1; stroke-dasharray: none; stroke-linecap: butt; stroke-dashoffset: 0; stroke-linejoin: miter; stroke-miterlimit: 4; fill: rgb(22,173,225); fill-rule: nonzero; opacity: 1;"  transform=" translate(-427.1, -166.95)" d="M 471 188.3 h -87.8 c -2.8 0 -5 -2.2 -5 -5 v -32.7 c 0 -2.8 2.2 -5 5 -5 H 471 c 2.8 0 5 2.2 5 5 v 32.7 C 476 186.1 473.8 188.3 471 188.3 z M 388.2 178.3 H 466 v -22.7 h -77.8 V 178.3 z" stroke-linecap="round" />
</g>
<g transform="matrix(0.39 0 0 0.39 266.84 142.05)" id="Layer_2"  >
<path style="stroke: none; stroke-width: 1; stroke-dasharray: none; stroke-linecap: butt; stroke-dashoffset: 0; stroke-linejoin: miter; stroke-miterlimit: 4; fill: rgb(22,173,225); fill-rule: nonzero; opacity: 1;"  transform=" translate(-427.1, -107.65)" d="M 471 129 h -87.8 c -2.8 0 -5 -2.2 -5 -5 V 91.3 c 0 -2.8 2.2 -5 5 -5 H 471 c 2.8 0 5 2.2 5 5 V 124 C 476 126.8 473.8 129 471 129 z M 388.2 119 H 466 V 96.3 h -77.8 V 119 z" stroke-linecap="round" />
</g>
</svg>